<svg width="48" height="48" viewBox="0 0 48 48" fill="none" xmlns="http://www.w3.org/2000/svg">
<path d="M0.727273 28.5C0.63175 28.4999 0.537153 28.5193 0.448892 28.557C0.36063 28.5946 0.280434 28.6499 0.212889 28.7195C0.145345 28.7892 0.0917773 28.8719 0.055248 28.9629C0.0187188 29.0539 -5.53288e-05 29.1515 1.22477e-07 29.25V47.25C1.22477e-07 47.4489 0.0766227 47.6397 0.213013 47.7803C0.349403 47.921 0.534388 48 0.727273 48C0.920158 48 1.10514 47.921 1.24153 47.7803C1.37792 47.6397 1.45455 47.4489 1.45455 47.25V29.25C1.4546 29.1515 1.43583 29.0539 1.3993 28.9629C1.36277 28.8719 1.3092 28.7892 1.24166 28.7195C1.17411 28.6499 1.09392 28.5946 1.00565 28.557C0.917392 28.5193 0.822795 28.4999 0.727273 28.5Z" fill="#212529"/>
<path d="M6.54539 13.5C6.44987 13.4999 6.35527 13.5193 6.26701 13.557C6.17874 13.5946 6.09855 13.6499 6.031 13.7195C5.96346 13.7892 5.90989 13.8719 5.87336 13.9629C5.83683 14.0539 5.81806 14.1515 5.81812 14.25V47.25C5.81812 47.4489 5.89474 47.6397 6.03113 47.7803C6.16752 47.921 6.3525 48 6.54539 48C6.73827 48 6.92326 47.921 7.05965 47.7803C7.19604 47.6397 7.27266 47.4489 7.27266 47.25V14.25C7.27272 14.1515 7.25394 14.0539 7.21741 13.9629C7.18088 13.8719 7.12732 13.7892 7.05977 13.7195C6.99223 13.6499 6.91203 13.5946 6.82377 13.557C6.73551 13.5193 6.64091 13.4999 6.54539 13.5Z" fill="#212529"/>
<path d="M35.6365 10.5C35.5409 10.4999 35.4463 10.5193 35.3581 10.557C35.2698 10.5946 35.1896 10.6499 35.1221 10.7195C35.0545 10.7892 35.001 10.8719 34.9644 10.9629C34.9279 11.0539 34.9091 11.1515 34.9092 11.25V47.25C34.9092 47.4489 34.9858 47.6397 35.1222 47.7803C35.2586 47.921 35.4436 48 35.6365 48C35.8293 48 36.0143 47.921 36.1507 47.7803C36.2871 47.6397 36.3637 47.4489 36.3637 47.25V11.25C36.3638 11.1515 36.345 11.0539 36.3085 10.9629C36.2719 10.8719 36.2184 10.7892 36.1508 10.7195C36.0833 10.6499 36.0031 10.5946 35.9148 10.557C35.8266 10.5193 35.732 10.4999 35.6365 10.5Z" fill="#212529"/>
<path d="M29.8181 15C29.7226 14.9999 29.628 15.0193 29.5397 15.057C29.4515 15.0946 29.3713 15.1499 29.3037 15.2195C29.2362 15.2892 29.1826 15.3719 29.1461 15.4629C29.1095 15.5539 29.0908 15.6515 29.0908 15.75V47.25C29.0908 47.4489 29.1674 47.6397 29.3038 47.7803C29.4402 47.921 29.6252 48 29.8181 48C30.011 48 30.196 47.921 30.3324 47.7803C30.4687 47.6397 30.5454 47.4489 30.5454 47.25V15.75C30.5454 15.6515 30.5266 15.5539 30.4901 15.4629C30.4536 15.3719 30.4 15.2892 30.3325 15.2195C30.2649 15.1499 30.1847 15.0946 30.0965 15.057C30.0082 15.0193 29.9136 14.9999 29.8181 15Z" fill="#212529"/>
<path d="M41.4546 28.5C41.359 28.4999 41.2644 28.5193 41.1762 28.557C41.0879 28.5946 41.0077 28.6499 40.9402 28.7195C40.8726 28.7892 40.8191 28.8719 40.7825 28.9629C40.746 29.0539 40.7272 29.1515 40.7273 29.25V47.25C40.7273 47.4489 40.8039 47.6397 40.9403 47.7803C41.0767 47.921 41.2617 48 41.4546 48C41.6475 48 41.8324 47.921 41.9688 47.7803C42.1052 47.6397 42.1818 47.4489 42.1818 47.25V29.25C42.1819 29.1515 42.1631 29.0539 42.1266 28.9629C42.0901 28.8719 42.0365 28.7892 41.9689 28.7195C41.9014 28.6499 41.8212 28.5946 41.7329 28.557C41.6447 28.5193 41.5501 28.4999 41.4546 28.5Z" fill="#212529"/>
<path d="M47.2727 21C47.1772 20.9999 47.0826 21.0193 46.9943 21.057C46.906 21.0946 46.8258 21.1499 46.7583 21.2195C46.6908 21.2892 46.6372 21.3719 46.6007 21.4629C46.5641 21.5539 46.5454 21.6515 46.5454 21.75V47.25C46.5454 47.4489 46.622 47.6397 46.7584 47.7803C46.8948 47.921 47.0798 48 47.2727 48C47.4656 48 47.6506 47.921 47.7869 47.7803C47.9233 47.6397 48 47.4489 48 47.25V21.75C48 21.6515 47.9812 21.5539 47.9447 21.4629C47.9082 21.3719 47.8546 21.2892 47.7871 21.2195C47.7195 21.1499 47.6393 21.0946 47.5511 21.057C47.4628 21.0193 47.3682 20.9999 47.2727 21Z" fill="#212529"/>
<path d="M12.3637 18C12.2682 17.9999 12.1736 18.0193 12.0854 18.057C11.9971 18.0946 11.9169 18.1499 11.8494 18.2195C11.7818 18.2892 11.7283 18.3719 11.6917 18.4629C11.6552 18.5539 11.6364 18.6515 11.6365 18.75V47.25C11.6365 47.4489 11.7131 47.6397 11.8495 47.7803C11.9859 47.921 12.1709 48 12.3637 48C12.5566 48 12.7416 47.921 12.878 47.7803C13.0144 47.6397 13.091 47.4489 13.091 47.25V18.75C13.0911 18.6515 13.0723 18.5539 13.0358 18.4629C12.9992 18.3719 12.9457 18.2892 12.8781 18.2195C12.8106 18.1499 12.7304 18.0946 12.6421 18.057C12.5539 18.0193 12.4593 17.9999 12.3637 18Z" fill="#FF6C37"/>
<path d="M18.1819 1.26305e-07C18.0863 -5.70578e-05 17.9917 0.0193038 17.9035 0.0569745C17.8152 0.0946453 17.735 0.149887 17.6675 0.219542C17.5999 0.289197 17.5464 0.371899 17.5098 0.462919C17.4733 0.553939 17.4545 0.651493 17.4546 0.75V47.25C17.4546 47.4489 17.5312 47.6397 17.6676 47.7803C17.804 47.921 17.989 48 18.1819 48C18.3747 48 18.5597 47.921 18.6961 47.7803C18.8325 47.6397 18.9091 47.4489 18.9091 47.25V0.75C18.9092 0.651493 18.8904 0.553939 18.8539 0.462919C18.8174 0.371899 18.7638 0.289197 18.6962 0.219542C18.6287 0.149887 18.5485 0.0946453 18.4602 0.0569745C18.372 0.0193038 18.2774 -5.70578e-05 18.1819 1.26305e-07Z" fill="#FF6C37"/>
<path d="M24 25.5C23.9045 25.4999 23.8099 25.5193 23.7216 25.557C23.6333 25.5946 23.5531 25.6499 23.4856 25.7195C23.4181 25.7892 23.3645 25.8719 23.328 25.9629C23.2914 26.0539 23.2726 26.1515 23.2727 26.25V47.25C23.2727 47.4489 23.3493 47.6397 23.4857 47.7803C23.6221 47.921 23.8071 48 24 48C24.1929 48 24.3778 47.921 24.5142 47.7803C24.6506 47.6397 24.7273 47.4489 24.7273 47.25V26.25C24.7273 26.1515 24.7085 26.0539 24.672 25.9629C24.6355 25.8719 24.5819 25.7892 24.5144 25.7195C24.4468 25.6499 24.3666 25.5946 24.2784 25.557C24.1901 25.5193 24.0955 25.4999 24 25.5Z" fill="#FF6C37"/>
</svg>
