<svg width="48" height="48" viewBox="0 0 48 48" fill="none" xmlns="http://www.w3.org/2000/svg">
<path d="M45.8666 22.6741H46.0541C46.2261 22.6741 46.3911 22.7463 46.5127 22.8749C46.6344 23.0035 46.7027 23.178 46.7027 23.3598C46.7027 23.5417 46.6344 23.7161 46.5127 23.8447C46.3911 23.9733 46.2261 24.0455 46.0541 24.0455H43.2187C40.7483 24.0455 39.7804 18.5759 38.6592 12.2424C37.8928 7.91384 36.7348 1.37143 35.2766 1.37143C33.8311 1.89375 32.6997 13.9982 31.9523 22.0072C30.5308 37.2187 29.6643 43.8857 27.3345 43.8857C24.8944 43.8857 24.0317 37.5228 22.7192 26.2768C22.0503 20.5446 20.8036 9.87451 19.3923 9.87451C17.9113 9.87451 16.6862 17.4495 15.8742 22.4625C14.5782 30.4727 13.671 35.3825 11.4502 35.3825C9.18497 35.3825 8.14485 31.8147 7.04392 28.0366C6.11275 24.837 5.05616 21.2116 3.50802 21.2116H0.648649C0.476616 21.2116 0.31163 21.1393 0.189985 21.0107C0.0683397 20.8821 0 20.7077 0 20.5258C0 20.344 0.0683397 20.1696 0.189985 20.041C0.31163 19.9124 0.476616 19.8401 0.648649 19.8401H3.50802C6.01393 19.8401 7.1174 23.6249 8.2842 27.6334C9.15583 30.6227 10.1427 34.0111 11.4502 34.0111C12.6892 34.0111 13.8826 26.6369 14.5959 22.2307C15.973 13.7197 16.9421 8.50308 19.3923 8.50308C21.8323 8.50308 22.6938 14.8647 24.0063 26.108C24.6753 31.8415 25.9219 42.5143 27.3345 42.5143C28.7813 41.9933 29.9126 29.8848 30.6613 21.8732C32.0815 6.66429 32.9468 0 35.2766 0C37.8116 0 38.7948 5.5567 39.9337 11.9893C40.6875 16.2442 41.8252 22.6741 43.2187 22.6741" fill="#FF6C37"/>
<path d="M47.1639 26.7884H47.3514C47.5234 26.7884 47.6884 26.8606 47.8101 26.9892C47.9317 27.1178 48.0001 27.2922 48.0001 27.4741C48.0001 27.6559 47.9317 27.8304 47.8101 27.9589C47.6884 28.0875 47.5234 28.1598 47.3514 28.1598H44.5161C42.0457 28.1598 41.0778 22.6901 39.9566 16.3567C39.1901 12.0281 38.0322 5.48569 36.574 5.48569C35.1284 6.00801 33.9971 18.1124 33.2496 26.1214C31.8282 41.333 30.9616 48 28.6318 48C26.1918 48 25.329 41.637 24.0165 30.391C23.3476 24.6589 22.101 13.9888 20.6897 13.9888C19.2087 13.9888 17.9836 21.5638 17.1715 26.5767C15.8755 34.587 14.9684 39.4968 12.7475 39.4968C10.4823 39.4968 9.44221 35.9289 8.34129 32.1508C7.41011 28.9513 6.35353 25.3258 4.80538 25.3258H1.94601C1.77398 25.3258 1.60899 25.2536 1.48735 25.125C1.3657 24.9964 1.29736 24.822 1.29736 24.6401C1.29736 24.4582 1.3657 24.2838 1.48735 24.1552C1.60899 24.0266 1.77398 23.9544 1.94601 23.9544H4.80538C7.3113 23.9544 8.41476 27.7392 9.58157 31.7477C10.4532 34.737 11.4401 38.1254 12.7475 38.1254C13.9866 38.1254 15.18 30.7513 15.8932 26.345C17.2703 17.8339 18.2395 12.6173 20.6897 12.6173C23.1297 12.6173 23.9912 18.9789 25.3037 30.2222C25.9726 35.9558 27.2192 46.6285 28.6318 46.6285C30.0786 46.1076 31.2099 33.9991 31.9587 25.9875C33.3789 10.7786 34.2441 4.11426 36.574 4.11426C39.109 4.11426 40.0921 9.67096 41.2311 16.1035C41.9849 20.3585 43.1225 26.7883 44.5161 26.7883" fill="#212529"/>
</svg>
