<svg width="405" height="60" viewBox="0 0 405 60" fill="none" xmlns="http://www.w3.org/2000/svg">
<g clip-path="url(#clip0_56746_16187)">
<path d="M38.083 38.2614L31.9806 17.3918L25.9554 38.2614H10.8152L0 0.927002H14.291L19.2354 21.4877L25.801 0.927002H38.2374L44.7257 21.4877L49.6702 0.927002H64.0384L53.2231 38.2614H38.083Z" fill="#231F20"/>
<path d="M80.8767 52.4841H66.9717V0.926939H80.8767V4.87029C83.8893 1.31316 87.5195 0 91.3832 0C100.653 0 107.758 6.80141 107.758 19.5565C107.758 32.3116 100.653 39.1883 91.3832 39.1883C87.5214 39.1883 83.9665 37.8751 80.8767 34.3199V52.4841ZM86.5931 12.2897C84.8157 12.2897 82.191 13.2185 80.8767 14.8407V24.3476C82.1119 25.8944 84.8157 26.8986 86.5931 26.8986C90.3005 26.8986 93.5466 24.2704 93.5466 19.5565C93.5466 14.8426 90.3024 12.2916 86.5931 12.2916V12.2897Z" fill="#231F20"/>
<path d="M344.909 48.8362H348.008L347.527 50.6746C347.462 50.9199 347.317 51.1362 347.116 51.2926C346.916 51.4471 346.671 51.5301 346.416 51.5263H344.974C344.66 51.5224 344.355 51.6228 344.106 51.814C343.851 52.011 343.666 52.2852 343.577 52.5961C343.513 52.824 343.506 53.0654 343.556 53.2971C343.602 53.5076 343.693 53.7065 343.822 53.8803C343.953 54.0522 344.121 54.1912 344.316 54.2858C344.521 54.3882 344.746 54.4384 344.974 54.4365H345.852C346.011 54.4345 346.161 54.5079 346.258 54.6354C346.362 54.759 346.397 54.927 346.348 55.0814L345.8 57.113H344.839C344.208 57.1188 343.583 56.9701 343.021 56.6804C342.483 56.4043 342.01 56.0142 341.639 55.5333C341.273 55.0544 341.016 54.5002 340.892 53.9093C340.759 53.2894 340.777 52.6463 340.941 52.0341L340.995 51.8275C341.226 50.9682 341.736 50.2073 342.442 49.6646C342.788 49.402 343.174 49.1954 343.585 49.0544C344.009 48.9076 344.455 48.8323 344.905 48.8343L344.909 48.8362Z" fill="#231F20"/>
<path d="M346.472 57.1131L349.175 46.9824C349.241 46.7371 349.386 46.5209 349.587 46.3644C349.787 46.21 350.032 46.1269 350.285 46.1308H353.153C353.784 46.125 354.409 46.2737 354.971 46.5633C356.061 47.1195 356.845 48.1391 357.104 49.3364C357.241 49.9563 357.221 50.6013 357.05 51.2116L356.996 51.4182C356.88 51.8508 356.694 52.2602 356.447 52.6329C355.702 53.7548 354.446 54.4269 353.101 54.4249H350.617L351.111 52.5711C351.181 52.3316 351.323 52.1192 351.522 51.9666C351.723 51.8121 351.968 51.7291 352.223 51.733H353.018C353.678 51.733 354.253 51.2869 354.417 50.6477C354.481 50.4275 354.487 50.1958 354.435 49.9737C354.388 49.7632 354.297 49.5643 354.166 49.3905C354.035 49.2186 353.865 49.0777 353.672 48.9792C353.47 48.873 353.244 48.8189 353.016 48.8208H351.48L349.477 56.275C349.407 56.5144 349.264 56.7269 349.065 56.8794C348.871 57.0339 348.627 57.115 348.38 57.1131H346.474H346.472Z" fill="#231F20"/>
<path d="M363.579 51.7038L363.619 51.5532C363.638 51.4894 363.625 51.4218 363.584 51.3697C363.542 51.3195 363.478 51.2905 363.413 51.2944H358.954C358.773 51.2963 358.594 51.2538 358.433 51.1708C358.283 51.0936 358.152 50.9835 358.049 50.8502C357.947 50.7151 357.878 50.5586 357.843 50.3926C357.806 50.2149 357.81 50.0314 357.856 49.8576L358.13 48.8148H364.167C364.526 48.811 364.879 48.8959 365.196 49.062C365.499 49.2184 365.763 49.4386 365.974 49.707C366.182 49.9774 366.327 50.2902 366.398 50.6224C366.475 50.9738 366.468 51.3388 366.377 51.6864L365.292 55.7224C365.076 56.5451 364.331 57.1148 363.482 57.109L359.024 57.0955C358.281 57.0993 357.578 56.7537 357.129 56.1589C356.915 55.8731 356.766 55.5467 356.691 55.1972C356.608 54.8322 356.617 54.4518 356.718 54.0926L356.772 53.886C356.835 53.631 356.944 53.3877 357.094 53.1714C357.239 52.9571 357.418 52.7678 357.623 52.6095C357.825 52.4531 358.053 52.3295 358.294 52.2464C358.545 52.1595 358.81 52.1151 359.076 52.1151H362.822L362.548 53.1444C362.479 53.3839 362.336 53.5963 362.137 53.7488C361.942 53.9014 361.699 53.9844 361.452 53.9825H359.779C359.622 53.9825 359.522 54.0598 359.478 54.2162C359.449 54.3089 359.47 54.4093 359.532 54.4846C359.591 54.5599 359.682 54.6043 359.779 54.6005H362.48C362.573 54.6024 362.666 54.5734 362.741 54.5174C362.812 54.4634 362.863 54.3861 362.878 54.2973L362.905 54.1872L363.577 51.7019L363.579 51.7038Z" fill="#231F20"/>
<path d="M371.563 48.8361C372.198 48.8284 372.827 48.9771 373.392 49.2687C373.931 49.5429 374.402 49.9349 374.772 50.4119C375.141 50.8928 375.396 51.4509 375.519 52.0457C375.652 52.6675 375.631 53.3144 375.457 53.9266L374.772 56.5066C374.73 56.6842 374.626 56.8406 374.477 56.9449C374.332 57.0531 374.155 57.111 373.973 57.1091H372.497C372.219 57.1149 371.989 56.8947 371.982 56.6186C371.982 56.5664 371.987 56.5143 372.003 56.4641L372.825 53.3472C372.889 53.129 372.896 52.8973 372.846 52.6752C372.8 52.4647 372.709 52.2658 372.58 52.092C372.449 51.9201 372.279 51.7792 372.086 51.6807C371.883 51.5745 371.657 51.5204 371.428 51.5223H369.891L368.56 56.5066C368.517 56.6842 368.413 56.8406 368.265 56.9449C368.116 57.055 367.935 57.111 367.749 57.1091H366.281C366.122 57.111 365.972 57.0376 365.877 56.9102C365.773 56.7866 365.738 56.6186 365.787 56.4641L367.817 48.8323H371.565L371.563 48.8361Z" fill="#231F20"/>
<path d="M379.643 51.451C379.533 51.5379 379.452 51.6538 379.409 51.787L378.792 54.1198C378.732 54.34 378.859 54.5659 379.079 54.6258C379.116 54.6354 379.153 54.6412 379.189 54.6412H384.869L384.431 56.275C384.362 56.5144 384.219 56.7269 384.02 56.8794C383.825 57.0339 383.582 57.115 383.335 57.1131H378.163C377.806 57.1169 377.452 57.0339 377.134 56.8736C376.829 56.7191 376.565 56.499 376.356 56.2286C376.15 55.9563 376.005 55.6435 375.932 55.3094C375.855 54.9618 375.866 54.5988 375.966 54.2569L376.804 51.1401C376.893 50.808 377.036 50.4913 377.229 50.2074C377.601 49.6474 378.147 49.2264 378.784 49.0062C379.108 48.8923 379.45 48.8344 379.792 48.8344H383.454C383.813 48.8305 384.167 48.9155 384.483 49.0815C384.786 49.238 385.051 49.4581 385.261 49.7265C385.469 49.9969 385.612 50.3117 385.68 50.6457C385.753 50.9953 385.743 51.3564 385.653 51.7021L385.406 52.6348C385.307 53.0345 385.072 53.3879 384.742 53.6351C384.418 53.8823 384.02 54.0156 383.611 54.0098H379.467L379.741 52.994C379.801 52.7526 379.942 52.5402 380.139 52.3896C380.34 52.2351 380.585 52.152 380.839 52.1559H382.513C382.669 52.1559 382.769 52.0786 382.814 51.9222L382.868 51.7156C382.912 51.5456 382.812 51.3738 382.644 51.3274C382.619 51.3216 382.592 51.3178 382.567 51.3158H380.015C379.88 51.3158 379.749 51.3603 379.645 51.4472L379.643 51.451Z" fill="#231F20"/>
<path d="M384.856 57.113L387.614 46.7486C387.656 46.571 387.76 46.4126 387.907 46.3026C388.056 46.1886 388.237 46.1288 388.422 46.1307H389.891C390.055 46.1249 390.21 46.2002 390.31 46.3296C390.414 46.4532 390.449 46.6212 390.401 46.7757L388.343 54.421C388.247 54.813 388.083 55.1857 387.857 55.5198C387.639 55.8423 387.371 56.1281 387.062 56.3637C386.751 56.5993 386.408 56.7847 386.039 56.9121C385.659 57.0454 385.259 57.113 384.858 57.111L384.856 57.113Z" fill="#231F20"/>
<path d="M390.87 47.0942C390.87 46.9281 390.912 46.7659 390.995 46.623C391.163 46.3295 391.476 46.1499 391.813 46.1499C391.979 46.1499 392.141 46.1924 392.284 46.2754C392.429 46.3565 392.549 46.4763 392.632 46.6211C392.8 46.9108 392.801 47.268 392.637 47.5596C392.381 48.0154 391.804 48.1757 391.35 47.9188C391.2 47.8338 391.076 47.7103 390.991 47.5596C390.912 47.4187 390.87 47.2584 390.872 47.0942H390.87ZM391.003 47.0942C391.003 47.3858 391.159 47.6542 391.41 47.7991C391.661 47.9439 391.97 47.9439 392.221 47.7991C392.344 47.7276 392.446 47.6253 392.518 47.5036C392.591 47.38 392.628 47.2391 392.628 47.0962C392.628 46.9533 392.591 46.8142 392.518 46.6906C392.446 46.567 392.344 46.4647 392.222 46.3932C391.972 46.2465 391.661 46.2465 391.41 46.3932C391.286 46.4647 391.184 46.567 391.113 46.6887C391.039 46.8123 391.001 46.9533 391.003 47.0962V47.0942ZM392.197 46.8664C392.197 46.9301 392.18 46.9919 392.143 47.044C392.107 47.0962 392.055 47.1367 391.993 47.1579L392.292 47.6542H392.082L391.821 47.2101H391.651V47.6542H391.466V46.5361H391.792C391.929 46.5361 392.033 46.5632 392.097 46.6172C392.167 46.681 392.203 46.7717 392.195 46.8664H392.197ZM391.653 47.0556H391.79C391.848 47.0575 391.906 47.0401 391.952 47.0035C391.991 46.9706 392.014 46.9224 392.014 46.8721C392.02 46.8219 391.999 46.7698 391.96 46.737C391.91 46.7061 391.85 46.6906 391.79 46.6964H391.657V47.0575L391.653 47.0556Z" fill="#231F20"/>
<path d="M260.017 57.1632C258.969 57.1632 258.134 56.7268 257.507 55.8539V59.8146H256.353V49.5372H257.507V50.6476C257.785 50.2575 258.143 49.9447 258.585 49.7071C259.027 49.4715 259.504 49.3518 260.017 49.3518C261.004 49.3518 261.801 49.7033 262.412 50.4081C263.022 51.1111 263.329 52.0592 263.329 53.2507C263.329 54.4422 263.024 55.3924 262.412 56.1011C261.801 56.8098 261.004 57.1651 260.017 57.1651V57.1632ZM259.724 56.132C260.454 56.132 261.033 55.8616 261.465 55.3228C261.895 54.7841 262.111 54.0927 262.111 53.2507C262.111 52.4088 261.895 51.7194 261.465 51.1864C261.035 50.6515 260.454 50.385 259.724 50.385C259.282 50.385 258.854 50.5008 258.439 50.7306C258.024 50.9604 257.713 51.2424 257.507 51.5707V54.9289C257.711 55.2688 258.022 55.5526 258.439 55.7844C258.854 56.0161 259.284 56.132 259.724 56.132Z" fill="#231F20"/>
<path d="M271.082 56.0393C270.408 56.7886 269.519 57.1632 268.411 57.1632C267.303 57.1632 266.411 56.7886 265.74 56.0393C265.068 55.29 264.73 54.3592 264.73 53.2507C264.73 52.1423 265.066 51.2134 265.74 50.4699C266.411 49.7245 267.303 49.3518 268.411 49.3518C269.519 49.3518 270.41 49.7245 271.082 50.4699C271.753 51.2153 272.091 52.1423 272.091 53.2507C272.091 54.3592 271.755 55.29 271.082 56.0393ZM266.601 55.2919C267.046 55.852 267.65 56.132 268.411 56.132C269.171 56.132 269.771 55.852 270.211 55.2919C270.653 54.7319 270.873 54.0522 270.873 53.2507C270.873 52.4493 270.653 51.7715 270.211 51.2173C269.769 50.663 269.169 50.385 268.411 50.385C267.652 50.385 267.048 50.665 266.601 51.225C266.155 51.785 265.931 52.4609 265.931 53.2507C265.931 54.0406 266.155 54.7319 266.601 55.2919Z" fill="#231F20"/>
<path d="M281.559 56.9799H280.405L278.466 51.0011L276.526 56.9799H275.372L273 49.5374H274.2L276.018 55.4698L277.973 49.5374H278.96L280.915 55.4698L282.733 49.5374H283.933L281.561 56.9799H281.559Z" fill="#231F20"/>
<path d="M288.628 57.1632C287.519 57.1632 286.612 56.8002 285.903 56.0779C285.195 55.3538 284.84 54.4114 284.84 53.2508C284.84 52.1616 285.189 51.2405 285.888 50.4854C286.586 49.7303 287.459 49.3538 288.505 49.3538C289.603 49.3538 290.473 49.7303 291.114 50.4854C291.755 51.2405 292.077 52.1925 292.077 53.3435V53.637H286.056C286.108 54.367 286.374 54.9772 286.857 55.4696C287.339 55.9621 287.966 56.2092 288.734 56.2092C289.659 56.2092 290.423 55.8964 291.029 55.2688L291.583 56.0239C290.823 56.7847 289.838 57.1632 288.626 57.1632H288.628ZM290.938 52.7873C290.929 52.15 290.713 51.5784 290.292 51.0686C289.871 50.5607 289.271 50.3058 288.491 50.3058C287.752 50.3058 287.169 50.5588 286.743 51.0609C286.316 51.5649 286.088 52.1404 286.058 52.7873H290.938Z" fill="#231F20"/>
<path d="M295.096 56.9799H293.941V49.5373H295.096V50.7385C295.783 49.8347 296.61 49.3828 297.575 49.3828V50.5685C297.431 50.5376 297.278 50.5222 297.114 50.5222C296.765 50.5222 296.385 50.6458 295.974 50.891C295.563 51.1382 295.271 51.4105 295.096 51.7079V56.9779V56.9799Z" fill="#231F20"/>
<path d="M302.379 57.1632C301.27 57.1632 300.362 56.8002 299.654 56.0779C298.946 55.3538 298.591 54.4114 298.591 53.2508C298.591 52.1616 298.94 51.2405 299.639 50.4854C300.337 49.7303 301.21 49.3538 302.256 49.3538C303.354 49.3538 304.224 49.7303 304.865 50.4854C305.506 51.2405 305.828 52.1925 305.828 53.3435V53.637H299.807C299.859 54.367 300.125 54.9772 300.608 55.4696C301.09 55.9621 301.717 56.2092 302.485 56.2092C303.41 56.2092 304.174 55.8964 304.78 55.2688L305.334 56.0239C304.574 56.7847 303.589 57.1632 302.377 57.1632H302.379ZM304.689 52.7873C304.68 52.15 304.464 51.5784 304.043 51.0686C303.622 50.5607 303.022 50.3058 302.242 50.3058C301.503 50.3058 300.92 50.5588 300.494 51.0609C300.067 51.5649 299.839 52.1404 299.809 52.7873H304.689Z" fill="#231F20"/>
<path d="M314.236 56.9798H313.082V55.8694C312.445 56.7326 311.61 57.1633 310.572 57.1633C309.533 57.1633 308.788 56.8118 308.176 56.1089C307.567 55.4059 307.26 54.4578 307.26 53.2663C307.26 52.0748 307.565 51.1382 308.176 50.4236C308.786 49.7091 309.585 49.3519 310.572 49.3519C311.558 49.3519 312.436 49.7883 313.082 50.6612V46.7004H314.236V56.9779V56.9798ZM310.847 56.132C311.299 56.132 311.729 56.02 312.141 55.7922C312.552 55.5662 312.864 55.2881 313.08 54.9599V51.5862C312.864 51.2463 312.55 50.9624 312.133 50.7307C311.718 50.499 311.288 50.385 310.847 50.385C310.118 50.385 309.539 50.6554 309.107 51.1942C308.676 51.7329 308.46 52.4243 308.46 53.2663C308.46 54.1082 308.676 54.7976 309.107 55.3306C309.539 55.8655 310.118 56.132 310.847 56.132Z" fill="#231F20"/>
<path d="M321.672 56.9798H320.518V46.7024H321.672V50.6631C322.319 49.7903 323.156 49.3538 324.183 49.3538C325.21 49.3538 325.955 49.7111 326.57 50.4256C327.186 51.1401 327.495 52.0864 327.495 53.2682C327.495 54.4501 327.19 55.4079 326.578 56.1108C325.966 56.8138 325.169 57.1652 324.183 57.1652C323.147 57.1652 322.309 56.7346 321.672 55.8714V56.9818V56.9798ZM321.672 54.9599C321.877 55.2882 322.187 55.5662 322.604 55.7922C323.019 56.0181 323.45 56.1321 323.89 56.1321C324.629 56.1321 325.214 55.8656 325.646 55.3306C326.076 54.7977 326.292 54.1082 326.292 53.2663C326.292 52.4243 326.076 51.733 325.646 51.1942C325.214 50.6554 324.629 50.385 323.89 50.385C323.448 50.385 323.019 50.5009 322.604 50.7307C322.189 50.9625 321.879 51.2463 321.672 51.5862V54.9599Z" fill="#231F20"/>
<path d="M328.956 59.892L329.141 58.8434C329.327 58.9265 329.537 58.967 329.772 58.967C330.039 58.967 330.261 58.911 330.434 58.7971C330.608 58.6832 330.759 58.4785 330.88 58.1811L331.372 57.0571L328.261 49.5374H329.508L331.988 55.6397L334.452 49.5374H335.715L331.988 58.49C331.577 59.4768 330.847 59.9789 329.801 60.0002C329.494 60.0002 329.211 59.9635 328.954 59.892H328.956Z" fill="#231F20"/>
<path d="M142.036 32.7768L146.326 26.6686C148.91 29.3645 152.926 31.676 157.986 31.676C162.331 31.676 164.367 29.7488 164.367 27.6033C164.367 21.219 143.248 25.676 143.248 11.8627C143.248 5.75457 148.528 0.691162 157.162 0.691162C162.993 0.691162 167.831 2.45235 171.461 5.80864L167.117 11.6426C164.147 8.89071 160.186 7.62389 156.446 7.62389C153.146 7.62389 151.276 9.05486 151.276 11.2563C151.276 17.0362 172.341 13.1276 172.341 26.8308C172.341 33.5454 167.501 38.6068 157.656 38.6068C150.562 38.6068 145.502 36.2412 142.036 32.7729V32.7768Z" fill="#231F20"/>
<path d="M175.803 19.624C175.803 8.56254 183.888 0.637207 194.998 0.637207C206.109 0.637207 214.137 8.56254 214.137 19.624C214.137 24.7975 212.323 29.3105 209.353 32.6127L212.047 35.7489L206.603 40.2059L203.633 36.7936C201.102 37.9504 198.132 38.6089 194.998 38.6089C183.888 38.6089 175.803 30.6836 175.803 19.6221V19.624ZM198.792 31.0717L194.776 26.3385L200.22 21.8815L204.237 26.6147C205.447 24.6874 206.107 22.2677 206.107 19.6259C206.107 12.7473 201.762 7.5738 194.996 7.5738C188.23 7.5738 183.832 12.7473 183.832 19.6259C183.832 26.5046 188.176 31.6781 194.996 31.6781C196.372 31.6781 197.636 31.4579 198.792 31.0736V31.0717Z" fill="#231F20"/>
<path d="M219.636 23.2565V1.24365H227.556V23.0364C227.556 28.1539 230.526 31.6762 236.191 31.6762C241.855 31.6762 244.771 28.1539 244.771 23.0364V1.24365H252.745V23.2565C252.745 32.3367 247.355 38.6109 236.191 38.6109C225.026 38.6109 219.636 32.3367 219.636 23.2565Z" fill="#231F20"/>
<path d="M283.543 37.9504L281.233 31.7322H265.502L263.192 37.9504H254.337L268.472 1.24365H278.263L292.397 37.9504H283.543ZM273.368 9.05891L267.648 24.8536H279.089L273.368 9.05891Z" fill="#231F20"/>
<path d="M316.538 37.9504L309.334 24.9076H303.614V37.9504H295.803V1.24365H312.962C320.608 1.24365 325.337 6.25106 325.337 13.0756C325.337 19.514 321.212 23.0364 317.252 23.973L325.557 37.9524H316.536L316.538 37.9504ZM317.308 13.0196C317.308 9.99357 314.944 8.12231 311.864 8.12231H303.614V18.029H311.864C314.944 18.029 317.308 16.1577 317.308 13.0196Z" fill="#231F20"/>
<path d="M331.167 37.9504V1.24365H357.126V8.12231H338.977V15.8275H356.742V22.7062H338.977V31.0718H357.126V37.9504H331.167Z" fill="#231F20"/>
<path d="M363.229 37.9504V1.24365H377.694C389.188 1.24365 397.165 8.56261 397.165 19.57C397.165 30.5774 389.19 37.9524 377.75 37.9524H363.231L363.229 37.9504ZM389.188 19.57C389.188 13.1316 385.228 8.12231 377.748 8.12231H371.037V31.0718H377.692C384.952 31.0718 389.186 25.8442 389.186 19.57H389.188Z" fill="#231F20"/>
<path d="M400.507 2.07004H399.394V4.80644H398.89V2.07004H397.776V1.70312H400.509V2.07004H400.507ZM405 4.80644H404.496V2.23998L403.147 4.80644H403.003L401.654 2.23998V4.80644H401.15V1.70312H401.922L403.072 3.95868L404.222 1.70312H404.994V4.80451L405 4.80644Z" fill="#221F1F"/>
<path d="M131.516 18.0289C131.516 16.3585 130.879 14.688 129.607 13.4154C128.372 12.1795 126.734 11.4998 124.989 11.4998C123.244 11.4998 121.606 12.1814 120.371 13.4154C119.765 14.0199 119.309 14.7189 118.991 15.4605C118.641 16.2793 118.462 17.1541 118.462 18.0289C118.462 19.7032 119.097 21.3794 120.371 22.6559C121.548 23.8358 123.099 24.502 124.757 24.5599C124.834 24.5599 124.91 24.5542 124.989 24.5542C125.068 24.5542 125.141 24.558 125.219 24.5599C126.876 24.502 128.428 23.8358 129.607 22.6559C130.881 21.3794 131.516 19.7051 131.516 18.0289Z" fill="#066788"/>
</g>
<defs>
<clipPath id="clip0_56746_16187">
<rect width="405" height="60" fill="white"/>
</clipPath>
</defs>
</svg>
